<svg id="Layer_1" data-name="Layer 1" xmlns="http://www.w3.org/2000/svg" xmlns:xlink="http://www.w3.org/1999/xlink" viewBox="0 0 374.5 374.5"><defs><style>.cls-1{fill:none;}.cls-2{clip-path:url(#clip-path);}</style><clipPath id="clip-path"><rect class="cls-1" width="374.5" height="374.5"/></clipPath></defs><title>Artboard 1</title><g class="cls-2"><path d="M1.77,374.8c5.57-2.62,11.3-4.95,16.67-7.94,8-4.44,17-6.24,25.18-10.13,1.06-.5,2.08-1.08,3.29-1.72l.23-2.33c.32-.14.73-.41.81-.33,1.45,1.43,3.17.75,4.54.21,6.66-2.66,13.33-5.33,19.82-8.39,2.73-1.28,5-3.56,7.51-5.31,3.59-2.49,7.19-5,10.88-7.33,2.58-1.64,5.27-3.12,8-4.52,7.84-4.06,12.49-10.78,16.21-18.52,2.72-5.67,6.11-11,9.2-16.52.56-1,1.09-2,1.59-2.94-2.5-3.24-5.17-6-7-9.29-3-5.19-5.53-10.63-8-16.09a60.83,60.83,0,0,1-4.31-11.51,122.9,122.9,0,0,1-2.15-15.68c-.51-5.39-.68-10.8-1-16.21-.17-3.19-.32-6.39-.5-9.93l3-2,.3,6.46L110.6,221c2,3.12,6.68,3.71,7.42,9l4.07-6.23,1.75.4c.28-1.68.53-3.24.79-4.84l3.37-2c1.23-4.89,5.78-7,8.24-10.62,4-5.93,8.56-11.74,10.46-18.92a12.78,12.78,0,0,1,.91-1.88l4.44-2.21c.24,4.63.55,8.56-2.08,12.14a6.3,6.3,0,0,0-.76,3.36c-.09,3.05,0,6.11,0,9.16l-.91.24,4.12,5.54c4.85,1.79,8.93,2,13.2-.48,2-1.17,4.81-1.32,7.26-1.39,3-.08,4.17,1.69,4.15,5.6-2.85,0-5.84-.51-8.54.14s-4.8,2.47-8.3,4.39l3.42,2.08c1.09,2.4,0,5.28,3,6.72l4.65-1.89,5.09,3.8,3.67.82c1.73,2.32.35,3.1-1.67,3.8-2.92-2.6-6.06-4.1-10.1-3-1.1.32-2.52-.51-4.26-.92l-3.51,1.26-3.12-1.42-.93,2.39c4,2.75,7.74,2,11.16.45,6.84.51,11.74,6.88,19.11,5.13l-2.27-3.79,3.89-2,7.88,8c-1,3.22-2.82,3.86-5.29,3.67-5.13-.39-10.27-.64-15.39-1-4.74-.37-9.25-.23-13.58,2.38-1.81,1.09-4.44.81-7.41,1.26-.15.8-.38,2.08-.72,3.87l12,3.84,1.27,5.94,2.43,2.11c-.54,2-1.06,3.88-1.79,6.53-5.69,1.6-11.84,1-18.24,0L146,274.75l-1.75-2.18c-2.8,2.62-1.07,6.25-2.7,9.18l4.82,6.74-3.89,1.22,4.56,3.88v3.57l8.36,1.56,3.94,4.64,2.74-1.32,1.84.68,2.14-3.09,5,3.53c2.1-3.08,5.35-3,7.81-2.28,3.24-1.62,5.68-3.08,8.3-4.07,4.5-1.7,9.06-3.31,13.7-4.55,2-.54,4.32-.09,6.5,0,2.77-.44,4.93-3.51,8.76-1.61l1.73,4.08,2.86.66c-.4.57-.63,1.18-.86,1.18-1.29,0-2.58-.2-4.28-.36l.23,3-3.29,2.42-1.93-2.61L208,302.59a21,21,0,0,1-11.4,5c-4.06.49-8.08,1.4-13.36,2.35-1.64,1.84-5.07,1.19-8.43,1-2.91-.17-5.84-.19-8.75-.4a102.09,102.09,0,0,1-12.14-1.24c-2.12-.42-4-2.08-5.83-3.44l-14.33-7c-3.55,2.55-3.59,2.7-1.67,6.78,8.87,2.61,17.66,6.27,27.38,6.64,6,.22,11.95,1.29,17.93,1.89a19.46,19.46,0,0,0,4.38-.12c7.7-.94,15.4-1.87,23.07-3a54.25,54.25,0,0,0,6.69-1.79c1.11,1.46,2,2.61,2.53,3.32h9.75c14.26-11.19,26.31-23.8,37.35-37.16,6.55,1.83,9.73,7,13.17,11.61,4.69,6.35,9.35,12.7,15,18.24.94.92,1.67,2.06,2.57,3,3.57,3.81,7.13,7.62,10.77,11.36,2.14,2.2,4.34,4.36,6.67,6.35,2.65,2.27,5.49,4.32,9,7.05,2.94,5.28,8.52,9,14.79,13l-.68-5.81,4.6-.67c2.85,2.59-.76,4.48-.19,7l3.88-.53,5.76,8.23,20.62,8.5,2.27-3.87,1.17.51c-.21,1.86-.42,3.71-.67,5.86l2.82.66V533.79l-1.28.79c-1,5.2-1.82,9.54-2.69,14.14,1.55,2.53.33,5.27-.44,8H339.17c.41-.9.81-1.8,1.14-2.54l2.86.59c-.17-2-.3-3.51-.39-4.57.35-1.68,2.19-2.59.59-4.52l-1.29,2.65-6.25-4,2.92-1.08L340.2,539l-2.87-7.41,2.14-2.73-3.18-1.9,7.84-3.91c-1.78-1.33-2.81-2.12-4.25-3.2l4.26-3.9-3.07-4c.2-1.33.36-2.47.5-3.42-1-1.85-1.91-3.52-3-5.5a43.06,43.06,0,0,0,2.9-5.48c1-2.85,2.36-5.83-.6-8.54a57.48,57.48,0,0,1-4.05-4.52c-.2-2.57-.43-5.43-.68-8.55l3.9-3c3,1.89,1.19,4.51,1.71,6.82,2.35.56,2.2,4.43,5.89,4.32.4-2.42.78-4.76,1.16-7.06l-2.52-1.49c-.68-1.63-1.16-2.77-1.75-4.2l1.68-6.65-6-1.14a49.13,49.13,0,0,1-2.68-5.17c-.71-1.86-1.07-3.85-1.77-6.49.61-3.93.45-4.34-3.24-6.94l-3.64,2.4-4.83-1.26-3.55,5.55c-1.77-1.62-4.07-2.11-2.86-4.71l3.29.76a38.81,38.81,0,0,0-2-3.52c-.76-1-1.69-2-2.59-3l1.33-3-3-2.28c-.13,1.28-.19,2-.26,2.71l-2.23.37c-.15,1-.26,1.76-.42,2.82l-2.13-1.14c-.42-3.56,2-5.15,4.29-6.93l-1-2.79.62,1-7.57,4.34.69,1-5.91-2.53c-.38-2.32-.38-2.32-3-2.64.07,1.31.13,2.58.2,3.88l-1.68,1.92,1.63,2.33-7.14,5.25-7.64.4c-.51,1.87-.91,3.3-1.5,5.43L278,446.64,275.88,448c.4,1.41.74,2.65,1.13,4.06l-2.45,1.23-2.42-2.07-1.92.95L266.91,451c-.41,1.21-.73,2.12-1.05,3.05h-5c.2,2.08.38,3.94.5,5.17l-5,3.19.22.4-3.58.65-4.6,6.13-6,2.3-3.63-3.28L237.16,470l-8.33-7.48c.28,1.6.82,3,.66,4.34s-1,2.79-1.85,5l4.53-2.8.63,1-5.52,3.87,1.47,3.45-1.35,4.8c1.45,2.54,4.86,2.35,4.84,5.58h-4.61c-.61,3.39,3,3.11,3.73,5l-2.13,1.91c.48,1.64.82,2.81,1.16,4l-.57.37-1.33-1.23-8.71,1c1.39-2.65,1.67-4.54-.27-6.1a11,11,0,0,1-9.66-.19l2-3.68v-4.4l4.12,1.14-2.59-6-6-4.25c-2.3.13-4.58.73-5.26,3.5-.17.67.57,1.56,1.05,2.73l3.15-5.29c1.35,2.2,2.37,3.86,3.28,5.36-.81,4.17-.86,8.36-4.78,11a17.07,17.07,0,0,1,1.5-5.6c.8-1.56.74-2.8-.23-4.92-1.13,2.26-1.92,3.86-2.81,5.65-2.63-1.52-2.35-3.93-2.49-7.15l-7,7c.91,2,1.74,3.88,2.66,5.93h-3.94l-4.36,5.19c-.34-1.72-.49-2.48-.68-3.5L184,496.36l-1.61,4.47c.82,2.4,3.25,4.13,1.3,7l-4.93-2.5c.54-1,1-1.89,1.59-2.89l-9.88,1.72-4.79,6.05,2.32,1.11c.3,1.59.56,3,1,5.32l-4.38-2.45-2.4.37c-3.09-2.71,1.87-8.17-4.14-9.71l-.4,3.43-1,.13-1.48-4.11-4.67,5.28.46.69,4.42-.69.22.68-3.35,2.55c-1.16,3.81-2.29,7.56-3.42,11.3l-.67-.17c-.72-3-1.43-6.08-2.22-9.43.1-.14.47-.65,1.2-1.62l-7.88-2.44-.43.78,4.16,3.73-3.18.28c-.49,1.22-1,2.42-1.4,3.48-3.86,2.23-6.49-.23-8.95-2-1.88-1.39-3.59-2.35-5-2.24l-5.94,4.88c.39,1.1.81,2.28,1.3,3.69l-3.13,1.24c0,7.91-4.53,15-2.48,23.5l6.75-5.26,3.12-.87c-.33,1.12-.64,2.12-1,3.27l4.09,1.8-2.93,6.59-2.77-.69c-.6,1.77-1,2.95-1.42,4.14H108.64l-2.8-5,3.71-.36c-.43-2.26-.79-4.18-1.17-6.23,5.47-3.87,1.84-10.09,3.67-14.66l-3.78-8.2a15.82,15.82,0,0,0-.79,2.15c-.62,3.42-.74,7-1.87,10.22-2.52,7.19-4.6,14.43-4.92,22.08H81.26c.56-2.82,3.89-.8,5-2.84-1.42-2.47-2.86-4.95-3.83-6.61.79-4.28,1.43-7.74,2.06-11.21l-.86-.62L80,537.56l1-1-4.47-2.8,1.8-2-.34-.88-4.25.51c.69-2.05,1.28-3.79,1.73-5.1l-11.08-5.9c.53-1.27.92-2.17,1.39-3.27L63,515.6c-1.7,1.39-3.26,2.66-5.13,4.17L52.42,516l3.64-.78c.61-1.91,1.14-3.53,1.67-5.18-1.2-.33-2.72,2-3.63-.43l2-2.95-.54-.43-5,2c-.79-1.72-1.32-2.88-1.78-3.87l-5.7-2.3-3.47,1.72c.59,1.24,1,2.21,1.47,3.11l3.7-.92c-.12.86-.1,1.59-.24,1.62-5.46,1.2-10.84.73-16.5-.71l3.82-4.72-4-2.73c-1.46,2.34-2.58,4.13-4.2,6.74l-.55-3.68c-1.87.47-2.59,2.82-5.09,2.1,1.64-2.47,3.15-4.72,4.55-6.82l-4-2.58a23.91,23.91,0,0,0-3.08.76c-1.76.68-3.47,1.5-5,2.15l-1.48,3.13c-.76-3.79-.76-3.79-3.18-3.8.78,9.26.78,9.26-1.34,10.43-.22-2,.39-4.55-2.76-5Zm158.59,74.86,29.26-7.84-.14-.47,9.55-1.51a50.53,50.53,0,0,1,8.94-4.42,39.79,39.79,0,0,0,5.12-2.51c1.48-.89,2.38-2.21,1.49-4.09-.06-.11.25-.38.38-.57l2.65,1,5-3.09,5.2,1.61V419a41.69,41.69,0,0,0-4.78,2.33c-1.36.89-2,3.16-4.77,2.19l3.29-4.06c-.2-1.41-.39-2.69-.71-5l3-.55c-1.9-1.1-2.62-1.51-3.29-1.91l2.88-7-3.93,1.82c.63-5.28,3.05-9.22,6-9.58l-1.44,3.87,2.3,1.7-1.64,2.59.48.83,4.21-1.07L228,401.7c1.78-3.48,3.44-6.7,5-9.75h4.44c1.36-4.13.94-5.78-2.07-8.17l-2.47,2.06c-.69-2.29-1.27-4.22-1.88-6.23h-4.16c5.53-3,9.55,2.63,14.89,2.57-.07-1-.11-1.65-.16-2.36h-3.17A6.64,6.64,0,0,0,237,378a12.15,12.15,0,0,0-3-.94l3.05-3.34-1.89-2.41c.51-1,1-2,1.58-3.13l5.46,2.49c4.5-2.45,2.59-8.55,6.83-11.15l-2.8-4.78L239.44,356c-.49,2.48-1,5.16-1.67,8.43l-4.26,2.3-3.77,5.3-.2,2.56-7.16,2.07-11.78,14.6-3.92-.31-5.55,7.65,1.48.82-13.22,13.26-7,1.45-3.91,4.44,2.17,2.94-3.4,1.86c.26,1.09.49,2,.77,3.19l-7.65,4.36-2.49-.4c-2,.25-2.43,3-5.12,1.51a39.68,39.68,0,0,1,3.9-5.17c1.86-1.81,4.22-3.08,6.1-4.87,3.09-2.93,5.86-6.2,9-9.11a44.28,44.28,0,0,1,5.53-3.85l.12.32,34.29-36.84A44.65,44.65,0,0,0,225,368c3-4.12,6-8.25,9.14-12.29,2.49-3.23,5.37-6.19,7.67-9.54A89.36,89.36,0,0,0,249,334.12c2.69-5.64,4.84-11.53,7.29-17.49a8.41,8.41,0,0,0-8.16,2.43c-6.68,6.56-15.36,9.6-23.49,13.56-4.86,2.38-10,4.24-15,6.28a18.44,18.44,0,0,1-3.76,1.18c-4.9.84-9.82,1.57-15,2.38-4-2.09-8.28-3.21-12.8-.68a5.84,5.84,0,0,1-3,.45c-4.82-.24-9.63-.59-15.55-1a70,70,0,0,1-7.43,1.23c-2.77.23-5.58-.14-8.37,0-4.29.18-7.67-1.57-10.66-4.45-2.17-2.09-4.44-4.08-7.07-6.5.2,14.23,2,28,3,41.93l-2,3.44,2,1.09-1.68,3.51,3.41,5.2-1.59,3.26c1.16,1.64,2.24,3.15,3.26,4.6-.92,1.86-1.69,3.41-2.33,4.68l3.93,9.94c-.4,2.1-.87,4.52-1.36,7.09l2.85,2.13c-.44,2.42-1.41,4.4-.93,5.93.56,1.77,1.58,3.48,2.3,5.3,1.59,4,3.65,7.84,5.55,11.73.63,1.28,1.33,2.53,2.24,4.26l5.65-3.17a9.58,9.58,0,0,1-3,4.69c-1.63,1.32-2.78,2.55-2,4.71C150.63,453.07,157.35,451.7,160.36,449.66Zm59.44-8.76c2.49-1.14,1.15-2.93,1.69-4.42-9.3-.41-16.9,3.87-24.85,6.73l2.91,5c5.6-1.35,11.33-2.73,17-4.17.21-.06.27-.75.51-1.49H213l3.56-4.49Zm12.79-21.11c.59,1.43,1.18,2.87,1.68,4.07-.62,1.52-1.14,2.82-1.62,4l5,2.81c-.2-1.64-.34-2.77-.48-3.94,3.3-5.69,1.31-11.85,1.78-18.72l-4.45,2c-.35,2.68-.61,4.67-.86,6.61l2.18,1Zm-18.73-92.48c3-1.25,5.89-2.49,8.82-3.7,2.51-1,4.42-2.57,5.06-5.55-.74-.28-1.36-.75-1.77-.61-3.72,1.21-7.47,2.36-11.07,3.89a47.89,47.89,0,0,0-6.21,3.78l.12,1c.79.13,1.6.21,2.38.41C212.17,326.74,213.12,327.08,213.86,327.31Z"/><path d="M273.06,252.53l-3.2-1.91-3.68-6.05c1.61-8.13,3.34-16.82,5.07-25.52l.71-.53c2,5.25,6.36,3.74,10.21,4.11,6.6-3.47,9.31-10.3,12.73-16.31,1.83-3.22,4.91-6.1,5.4-11.22L296,198.61c1.37-3.39-.08-6.89,3.5-9.54l2.39,3.86c3.3-4.06,4.43-9,5.48-13.92,1.09-5.1,1.12-10.27-2-15.27l-7.72-4.15c-11.59,2.95-9.95,2-18.45,11L275,168.29l.84-.56q-1.38-5.85-2.77-11.71l-.65.1,2.18-5.78L271.94,145c.36-.33,1-.89,1.67-1.55v-4.31h2.63c1.17-3.37-3.35-7.59,2.13-10l-1.17-.74-1.48-1,2.2-1.59c-.11-4.8,1.28-9.83-3.44-14l5-7.3c-3.66-5.15-9.29-9.18-12.19-16.58,2.6,1.71,3.83,4.46,6.53,2.93,1.15-3.28,1.15-3.28-2.15-5.41-.08-.75-.17-1.59-.26-2.47L268,81c-.89-1.52-1.75-3-2.88-5l3.59.58.47,3.28,5.91,1.1c-.46-4.34-3.26-7.28-6-10.21.37-1.59.72-3.07,1.06-4.57L275,67.51l2.36-4.42c2.33,2.77,4.73,4.87,8.27,5.42,1.24.19,2.28,1.68,3.41,2.57l1.54-1.27,1.37,3.4,3.19.31a33.26,33.26,0,0,1,1.62,3c2.62,6.37,5.18,12.75,7.78,19.13.78,1.9,1.66,3.77,2.38,5.69a13.1,13.1,0,0,1,1.17,4.18c.16,10.46,1.87,20.73,3.28,31.06.79,5.79,2.6,11.06,4.33,16.5a47.43,47.43,0,0,1,.18,29.43c-2.22,7.08-4.68,14.17-5.42,21.73-.42,4.29-2.09,8.38-3.71,12.52-3.52,9-10.17,15.77-15.55,23.35C287.13,245.89,282.14,251.87,273.06,252.53Z"/><path d="M103.66,127.66l3.12,8.05a46.45,46.45,0,0,0,16.35,1.6c3-.19,6.07.68,9.08,1.22a55.07,55.07,0,0,0,5.84,1.09c3.72,2.26,7.7,4.21,11.1,6.9,3,2.41,5.49,5.61,8.11,8.53a3.12,3.12,0,0,1,.7,2c-.2,4.79-.49,9.57-.75,14.2l-4.8,3.49c-1,1.92,2.84,3.49-.56,5.48l-5.91-4.06-3.1,2.27L137.76,176l3.64-2.9-4.8-3.27c-3.12,1.17-5,5.21-8.64,3.86-2.71-1-5.07-3-7.85-4.66-1.42,4.87,3.77,6.13,4.62,9.92l3.54-2.14c1.88,2.2,5.76.23,7.68,3.37a60.56,60.56,0,0,1-6.76,3,71.12,71.12,0,0,1-7.45,1.49c-3.06-1.08-6.28-2-9.34-3.34-2.75-1.17-5.34-2.73-8.22-4.23l-2.3,1.83.52,4.07-2.82,3.34c.56,2.5,1.16,5.15,1.78,7.87L97,195.39c-1.11-3.34-2.15-6.81-3.43-10.19-1.13-3-2.56-5.89-3.83-8.83a17.33,17.33,0,0,1-1.25-3.27c-1-4.87-2-9.74-2.71-14.66-.81-6-1.41-11.95-1.84-17.95-.48-6.64.7-13.16,1.82-19.24,3.62-4,6.11-7.87,6.06-13.12,0-3.4.77-6.67,4.39-8.51,1-.54,1.57-2.07,2.45-3.29l2.86,2.21c-1.34,9.28-2.65,18.28-4,27.38l2.56,4.55Z"/><path d="M127.44,62.38c.22-1.26.39-2.24.67-3.81a99.89,99.89,0,0,1,9-4.72c2-.82,3.71-1.56,5-3.35a5.79,5.79,0,0,1,2.28-1.88c4-1.8,7.93-3.63,12-5.1,1.47-.53,3.29-.09,5.59-.09,1.44-3.22,5.52-2.12,8.81-3.43l1.5,1.39,11.25,1.84-1,2.88-4.37-1,.19,2.42,6.52-.33.53,1.09L182,49.8l.76,1h5.67l.15.76-4.07,2.21,5.5,2.74-4.89.54-3,2.78-2.62-1.24-4.15,2.13c-7.77.27-15.5,2.5-24,1.12a7.21,7.21,0,0,1-1.72.88c-5.6,1.59-11.21,3.12-16.82,4.68a4.31,4.31,0,0,0-1.64.62c-5.1,4.59-11.77,7.2-16,12.87a34.78,34.78,0,0,1-3.87,3.81c-1.77-1.14-1.69-2.14-.92-3.28C115.14,74.25,120.41,67.43,127.44,62.38Z"/><path d="M218.34,142.75l-7,6.14c.54,2.93,2.9,2.92,5,3.33,6.25,1.19,10.58,5.37,14.88,9.6a2.9,2.9,0,0,1,.55,1.19,7.36,7.36,0,0,1,0,1.48c-2.66-.94-5.07-2-7.59-2.65s-5.1-2.28-8.39-1.14c3.38,2.06,6.47,3.83,9.42,5.79s5.85,4.16,8.76,6.24c-4.14,1.17-5.85.6-12.58-4.3-2.57,2.61-4.7,6.06-8.92,6.37-4.6.34-5.66-4.09-8.24-6.26-3.1-.06-3.56,2.26-4.23,4.45l-4.67,1.26-6.42-4.2c.12.3,0-.26-.32-.76-2.4-4.45-5-8.82-7.17-13.37-.74-1.54-.56-3.52-.79-5.21l26-8.32C209.5,143.84,213.6,140,218.34,142.75Z"/><path d="M295.4,174.06c-3.09,2.16-5.88,4.11-8.88,6.19.74,2.16,3.12,2.46,5,4.57.95,2.16,2.24,5.08,3.49,7.94-1.87,3-2,6.85-6.61,8l.38-7-2.34-4.05-5.05-.87c-2-3.1-1.26-6.33-.65-9.44,1.16-5.8,7.5-11.34,13.28-11.88,3.91-.36,6.27,1,7.41,4.74,1.6,5.3.67,10.3-2.77,15.68a12,12,0,0,1,.55-8.65Z"/><path d="M238.79,61.07c1.88-1.57,3.72-3.09,5.81-4.82h3.13c-.23-1.71-.44-3.24-.65-4.74,3.32-.78,5.43,0,8.64,3.32-.9.71-1.76,1.41-2.64,2.09C251.61,58,250,59,248.66,60.28,245.52,63.23,243.4,63.48,238.79,61.07Z"/></g></svg>